{
    "asset" : {
        "generator" : "Khronos glTF Blender I/O v1.1.46",
        "version" : "2.0"
    },
    "scene" : 0,
    "scenes" : [
        {
            "name" : "Scene",
            "nodes" : [
                17,
                18
            ]
        }
    ],
    "nodes" : [
        {
            "name" : "Bone.009",
            "rotation" : [
                0.03711600601673126,
                -0.17876490950584412,
                0.07202509790658951,
                0.9805498719215393
            ],
            "scale" : [
                0.9999999403953552,
                0.9999999403953552,
                1
            ],
            "translation" : [
                9.947598300641403e-14,
                0.7846476435661316,
                -1.7386092565629951e-13
            ]
        },
        {
            "children" : [
                0
            ],
            "name" : "Bone.008",
            "rotation" : [
                0.34289154410362244,
                4.3132573068760394e-07,
                1.9251261562658328e-07,
                0.9393750429153442
            ],
            "translation" : [
                7.105427357601002e-15,
                0.8451318144798279,
                -5.960464477539063e-08
            ]
        },
        {
            "children" : [
                1
            ],
            "name" : "Bone.001",
            "rotation" : [
                -0.30256298184394836,
                0.6391053795814514,
                0.30256304144859314,
                0.6391053199768066
            ],
            "scale" : [
                0.9999998807907104,
                0.9999997615814209,
                0.9999999403953552
            ],
            "translation" : [
                0,
                1,
                0
            ]
        },
        {
            "name" : "Bone.011",
            "rotation" : [
                0.002190533559769392,
                -0.21726544201374054,
                0.1111372634768486,
                0.9697625637054443
            ],
            "scale" : [
                1,
                0.9999999403953552,
                0.9999999403953552
            ],
            "translation" : [
                -1.7763568394002505e-14,
                0.8514065742492676,
                -4.706235401386039e-13
            ]
        },
        {
            "children" : [
                3
            ],
            "name" : "Bone.010",
            "rotation" : [
                0.13206203281879425,
                1.1000454378518043e-06,
                1.4466600362084137e-07,
                0.991241455078125
            ],
            "translation" : [
                -1.1546319456101628e-14,
                0.6230234503746033,
                -1.7208456881689926e-15
            ]
        },
        {
            "children" : [
                4
            ],
            "name" : "Bone.002",
            "rotation" : [
                -0.11487386375665665,
                0.6977134346961975,
                0.1148739606142044,
                0.6977134346961975
            ],
            "scale" : [
                0.9999999403953552,
                0.9999998807907104,
                0.9999999403953552
            ],
            "translation" : [
                0,
                1,
                0
            ]
        },
        {
            "name" : "Bone.013",
            "rotation" : [
                -0.03035907633602619,
                0.12843647599220276,
                -0.1085992231965065,
                0.9852860569953918
            ],
            "scale" : [
                0.9999999403953552,
                0.9999999403953552,
                0.9999998807907104
            ],
            "translation" : [
                1.7763568394002505e-14,
                0.6411505341529846,
                -5.232481115058363e-13
            ]
        },
        {
            "children" : [
                6
            ],
            "name" : "Bone.012",
            "rotation" : [
                0.14663082361221313,
                -0.24472641944885254,
                -0.13129210472106934,
                0.9494054913520813
            ],
            "scale" : [
                1,
                0.9999999403953552,
                0.9999998807907104
            ],
            "translation" : [
                -7.105427357601002e-15,
                0.6474192142486572,
                -2.986499936241671e-14
            ]
        },
        {
            "children" : [
                7
            ],
            "name" : "Bone.003",
            "rotation" : [
                -0.13643044233322144,
                -0.693820595741272,
                -0.13643047213554382,
                0.6938202977180481
            ],
            "scale" : [
                1.0000001192092896,
                1.0000001192092896,
                1
            ],
            "translation" : [
                0,
                1,
                0
            ]
        },
        {
            "name" : "Bone.015",
            "rotation" : [
                0.09727606177330017,
                0.0690312385559082,
                -0.21303141117095947,
                0.9697368741035461
            ],
            "scale" : [
                0.9999999403953552,
                0.9999999403953552,
                1
            ],
            "translation" : [
                2.1316282072803006e-14,
                0.45664915442466736,
                2.98022406752807e-08
            ]
        },
        {
            "children" : [
                9
            ],
            "name" : "Bone.014",
            "rotation" : [
                0.38726702332496643,
                -0.04080112278461456,
                -0.09563872218132019,
                0.9160856008529663
            ],
            "scale" : [
                1,
                0.9999998807907104,
                0.9999998807907104
            ],
            "translation" : [
                1.0658141036401503e-14,
                0.9207513332366943,
                -9.769962616701378e-15
            ]
        },
        {
            "children" : [
                10
            ],
            "name" : "Bone.004",
            "rotation" : [
                -0.23526811599731445,
                -0.5862458348274231,
                -0.35950079560279846,
                0.6868216395378113
            ],
            "scale" : [
                0.9999999403953552,
                0.9999998211860657,
                1
            ],
            "translation" : [
                0,
                1,
                0
            ]
        },
        {
            "name" : "Bone.007",
            "rotation" : [
                0.022492989897727966,
                0.1276932805776596,
                0.1502027064561844,
                0.9801162481307983
            ],
            "scale" : [
                0.9999999403953552,
                1,
                0.9999999403953552
            ],
            "translation" : [
                4.440892098500626e-15,
                0.3208642303943634,
                2.980232594040899e-08
            ]
        },
        {
            "children" : [
                12
            ],
            "name" : "Bone.006",
            "rotation" : [
                0.2906734049320221,
                0.04756132885813713,
                0.43128639459609985,
                0.8527830839157104
            ],
            "scale" : [
                1,
                1,
                0.9999998807907104
            ],
            "translation" : [
                -3.552713678800501e-15,
                0.9207512140274048,
                2.9802320611338473e-08
            ]
        },
        {
            "children" : [
                13
            ],
            "name" : "Bone.005",
            "rotation" : [
                -0.5515729188919067,
                0.44245612621307373,
                0.5515729188919067,
                0.44245606660842896
            ],
            "scale" : [
                1.0000001192092896,
                1.0000001192092896,
                1
            ],
            "translation" : [
                0,
                1,
                0
            ]
        },
        {
            "children" : [
                2,
                5,
                8,
                11,
                14
            ],
            "name" : "Bone"
        },
        {
            "mesh" : 0,
            "name" : "Cube",
            "skin" : 0
        },
        {
            "children" : [
                16,
                15
            ],
            "name" : "Armature"
        },
        {
            "name" : "Camera",
            "rotation" : [
                0.5646578073501587,
                0.35579147934913635,
                -0.2935411036014557,
                0.6844030618667603
            ],
            "translation" : [
                7.820956230163574,
                3.433788537979126,
                5.613337516784668
            ]
        }
    ],
    "materials" : [
        {
            "doubleSided" : true,
            "name" : "Material",
            "pbrMetallicRoughness" : {}
        }
    ],
    "meshes" : [
        {
            "name" : "Cube",
            "primitives" : [
                {
                    "attributes" : {
                        "POSITION" : 0,
                        "NORMAL" : 1,
                        "JOINTS_0" : 2,
                        "WEIGHTS_0" : 3
                    },
                    "indices" : 4,
                    "material" : 0
                }
            ]
        }
    ],
    "skins" : [
        {
            "inverseBindMatrices" : 5,
            "joints" : [
                15,
                2,
                1,
                0,
                5,
                4,
                3,
                8,
                7,
                6,
                11,
                10,
                9,
                14,
                13,
                12
            ],
            "name" : "Armature"
        }
    ],
    "accessors" : [
        {
            "bufferView" : 0,
            "componentType" : 5126,
            "count" : 47618,
            "max" : [
                1.05185866355896,
                3.26716947555542,
                0.26635706424713135
            ],
            "min" : [
                -1.4818089008331299,
                -0.08128374814987183,
                -0.2663570046424866
            ],
            "type" : "VEC3"
        },
        {
            "bufferView" : 1,
            "componentType" : 5126,
            "count" : 47618,
            "type" : "VEC3"
        },
        {
            "bufferView" : 2,
            "componentType" : 5123,
            "count" : 47618,
            "type" : "VEC4"
        },
        {
            "bufferView" : 3,
            "componentType" : 5126,
            "count" : 47618,
            "type" : "VEC4"
        },
        {
            "bufferView" : 4,
            "componentType" : 5123,
            "count" : 285696,
            "type" : "SCALAR"
        },
        {
            "bufferView" : 5,
            "componentType" : 5126,
            "count" : 16,
            "type" : "MAT4"
        }
    ],
    "bufferViews" : [
        {
            "buffer" : 0,
            "byteLength" : 571416,
            "byteOffset" : 0
        },
        {
            "buffer" : 0,
            "byteLength" : 571416,
            "byteOffset" : 571416
        },
        {
            "buffer" : 0,
            "byteLength" : 380944,
            "byteOffset" : 1142832
        },
        {
            "buffer" : 0,
            "byteLength" : 761888,
            "byteOffset" : 1523776
        },
        {
            "buffer" : 0,
            "byteLength" : 571392,
            "byteOffset" : 2285664
        },
        {
            "buffer" : 0,
            "byteLength" : 1024,
            "byteOffset" : 2857056
        }
    ],
    "buffers" : [
        {
            "byteLength" : 2858080,
            "uri" : "data:application/octet-stream;base64,"
        }
    ]
}
